Patient4_TMGait_0pt4_03_right_14_EMG.mot
version=1
nRows=23
nColumns=33
inDegrees=no
endheader
time	1LAddLong	2LGlutMax	3LGlutMed	4LIliopsoas	5LSemiMemb	6LBicFemLong	7LRecFem	8LVastMed	9LVastLat	10LGasMed	11LTibAnt	12lTibPost	13LPeroneusLong	14LSol	15LExtDigLong	16LFlexDigLong	17RAddLong	18RGlutMax	19RGlutMed	20RIliopsoas	21RSemiMemb	22RBicFemLong	23RRecFem	24RVastMed	25RVastLat	26RGasMed	27RTibAnt	28RTibPost	29RPeroneusLong	30RSol	31RExtDigLong	32RFlexDigLong
18.808	0.008087	-0.15213	0.00885	0.00946	-0.020142	0.074158	0.03952	-0.010071	0.011902	0.043488	0.043945	0.009918	0.065308	0.21881	-0.00061	0.001373	0.023041	0.016785	-0.016785	-0.037079	-0.04776	-0.25223	-0.19257	-0.072021	0.03418	0.011444	-0.74921	-0.009155	0.60349	-0.069122	-0.010376	0.000305
18.809	0.003204	-0.12131	0.024414	0.022125	-0.00946	-0.13672	0.057983	-0.014496	0.001373	0.004272	0.03006	-0.001373	-0.75913	0.12177	-0.11444	-0.004883	0.008392	-0.024414	0.20355	-0.024872	-0.01358	-0.16205	-0.14816	-0.069275	0.040131	0.011749	-0.71381	-0.010376	0.29785	-0.02594	-0.010071	-0.001831
18.81	0.009003	-0.15243	-0.011902	0.012665	0.019226	-0.27115	0.072174	-0.013733	-0.01358	0.023956	0.02655	0.005493	-0.52978	-0.10498	-0.23834	0.00824	-0.00885	-0.010376	0.15717	-0.002289	0.08606	-0.1062	-0.18814	-0.056152	0.031891	0.011139	-0.43442	-0.003052	0.070038	-0.011902	-0.016022	0.000305
18.811	0.016022	-0.13062	-0.04425	0.003052	0.013428	-0.35202	0.072174	-0.011444	-0.006256	0.01709	0.003204	0.011139	0.62897	-0.12207	-0.17075	0.000305	-0.020447	-0.050507	-0.35294	0.006256	0.004883	-0.11459	-0.13428	-0.036774	0.033722	0.016785	-0.41382	-0.005188	0.049133	-0.050964	-0.011597	0.000763
18.812	0.003204	-0.11353	-0.023956	0.006714	0.021362	-0.30365	0.078888	-0.009918	-0.004425	-0.053253	-0.033112	0.011597	0.55939	0.028687	0.056915	0.00351	-0.01236	-0.048676	-0.32394	0.011749	0.001678	-0.084229	-0.094147	-0.09964	0.048828	0.018463	-0.14008	-0.001831	-0.17975	-0.13397	-0.010376	0.00473
18.813	0.00473	-0.11704	0.07431	0.006561	0.005951	-0.14908	0.082397	-0.007172	-0.008545	-0.03952	-0.038452	0.011749	-0.40085	0.053406	0.18677	-0.003815	0.011139	-0.001373	-0.3157	-0.027008	-0.004425	-0.051422	-0.058136	-0.048981	0.033417	0.020905	0.3363	-0.00061	-0.35873	-0.093231	-0.010681	0.003357
18.814	0.003204	-0.090485	0.027924	0.00473	-0.005035	-0.081482	0.081329	-0.010223	-0.033112	-0.009155	-0.020294	0.010376	0.074921	0.055695	0.050659	0.000305	0.005493	-0.028687	-0.17868	-0.022278	-0.014801	-0.018005	-0.018005	-0.070801	0.0354	0.026703	0.35965	-0.003815	-0.4155	-0.021667	-0.009766	0.000916
18.815	0.011292	-0.11795	-0.052185	-0.007477	0.005646	-0.03067	0.003662	-0.005493	-0.025024	0.007324	-0.075378	0.015259	0.013123	0.08194	0.15274	0.000763	0.020599	-0.030975	0.062103	-0.023651	-0.085144	0.026398	-0.043945	-0.045166	0.036316	0.013885	0.27954	-0.005035	-0.23239	-0.007172	-0.004883	-0.000305
18.816	0.009613	-0.16266	-0.079193	-0.010681	0.008392	0.10193	-0.004883	-0.006409	-0.005188	0.042572	-0.064697	0.009918	-0.66132	0.19791	0.095062	-0.002441	0.029602	-0.050201	0.17807	-0.008698	-0.11215	0.020752	-0.045013	-0.089874	0.045929	0.014648	0.18494	-0.00885	-0.038452	0.00824	-0.005493	0
18.817	0.012665	-0.12161	-0.063629	0.005188	0.024719	0.06012	-0.006866	-0.008087	0.022888	0.17929	0.11734	0.004578	-0.11581	0.11124	-0.009766	-0.009766	0.043182	-0.087433	0.042114	-0.043182	-0.12344	0.021057	-0.006714	-0.076447	0.028076	0.016174	0.26657	-0.00946	0.033569	-0.044403	-0.007019	-0.001984
18.818	0.011749	-0.067902	-0.028534	0.008698	0.016022	0.078278	-0.021973	-0.01709	0.023956	0.14313	0.14938	0.009155	-0.25543	0.22049	-0.088654	-0.006409	0.076599	-0.011902	-0.17654	-0.035858	-0.1413	0.049133	-0.020142	-0.12375	0.007935	0.000916	0.2388	-0.002136	0.30121	-0.016785	-0.006104	-0.005341
18.819	0	-0.092621	0.023193	0.018768	0.032349	0.062256	-0.001221	-0.009155	-0.009155	0.23941	-0.007629	0.011139	0.018158	0.0737	-0.20737	-0.008698	0.079346	0.010529	-0.19577	-0.025024	-0.16693	0.067749	-0.019531	-0.17227	0.045776	0.007477	-0.18036	-0.001831	0.41245	-0.019531	-0.002441	-0.004883
18.82	-0.000763	-0.12375	0.076294	-0.005951	-0.003662	0.031738	0.056458	-0.012207	-0.02533	0.24109	-0.06012	0.00351	-0.25696	0.036469	-0.15137	-0.002594	0.066223	-0.02655	-0.056915	0.039673	-0.28549	0.12024	-0.081329	-0.2092	0.024261	0.011292	-0.13062	-0.00351	0.19516	-0.025177	-0.003662	-0.011597
18.821	-0.010071	-0.13275	-0.003967	0	0.01358	0.02121	0.058289	-0.013123	-0.036926	0.18753	-0.11566	0.008698	0.33539	-0.027313	0.081329	-0.003815	0.005798	-0.053558	-0.19913	0.014801	-0.31799	0.19196	-0.11795	-0.14252	0.018158	0.009613	0.016937	-0.000763	-0.097809	-0.033417	-0.013275	-0.011597
18.822	0.002747	-0.098877	0.017548	-0.032959	0.011749	0.022278	-0.008392	-0.014343	-0.027924	0.009918	-0.064697	-0.005646	0.43366	-0.03067	0.39398	0.010376	-0.079498	-0.053253	-0.24017	-0.00885	-0.061188	0.20813	-0.09491	-0.085602	0.034027	-0.001984	0.030518	0.000305	-0.3363	-0.041351	-0.007324	-0.011902
18.823	0.005188	-0.11231	-0.000305	-0.021362	0.006866	0.018921	-0.003357	-0.003204	-0.048218	-0.24643	0.002441	0.004272	0.21561	-0.029144	-0.23086	0.003052	-0.068054	-0.028687	-0.11215	-0.010834	0.36621	0.18951	-0.09079	-0.037384	0.045319	-0.025787	0.20569	-0.001373	-0.39825	-0.019531	-0.005493	0.002289
18.824	0.003662	-0.09491	-0.026703	-0.007019	0.002899	0.011139	-0.029907	-0.010529	-0.020905	-0.55496	-0.021362	0.003967	0.025635	-0.17166	-0.48294	0.001373	-0.097504	-0.036926	0.04837	0.000763	0.36774	0.22339	-0.11978	0.059052	0.04303	-0.018311	0.28671	-0.001831	-0.22232	-0.088959	-0.010681	0.000153
18.825	-0.001526	-0.077209	-0.057983	0.010376	-0.016785	-0.000153	-0.048523	-0.003967	-0.010834	-0.34546	-0.079346	0.006866	0.002899	-0.023651	-0.22018	0.005493	-0.049744	-0.057983	0.23102	-0.010529	0.28778	0.26672	-0.05661	-0.019226	0.036926	-0.012207	0.005188	-0.001221	0.18936	-0.22339	-0.007172	0.006866
18.826	0.009918	-0.067749	-0.005951	0.014801	-0.004425	0.007935	-0.044861	0.001831	-0.011139	0.13306	-0.04776	-0.002899	-0.25726	0.059357	0.006866	-0.004425	-0.027161	-0.049591	0.050049	-0.003662	0.15625	0.21515	0.004425	-0.062103	0.037842	-0.024109	-0.17624	-0.002899	0.053101	-0.22949	-0.008545	0.008392
18.827	0.005035	-0.084686	-0.013428	0.00946	0.018921	0.016479	-0.029297	-0.012665	0.046539	0.39398	0.004425	0.004272	-0.009766	-0.13916	0.091095	-0.00412	-0.007324	-0.060883	0.087738	-0.016632	0.042419	0.15243	0.060883	-0.076752	0.037537	-0.037537	-0.3627	-0.005493	0.14694	-0.17197	-0.00351	0.009155
18.828	0.011597	-0.076599	0.080719	0.005493	0.010071	0.013275	0.066528	-0.019684	0.064697	0.50278	0.007629	-0.002136	0.22171	-0.51209	0.027924	0.005035	-0.017395	-0.054321	0.15717	0.038452	0.028534	0.13916	0.077057	-0.06897	0.024567	-0.042419	-0.080109	-0.002594	0.28488	-0.022125	0	0.012054
18.829	0.01236	-0.074615	0.038147	0.011597	0.004425	-0.008545	0.069122	-0.019226	0.047913	0.53436	0.005341	0.007019	0.2919	-0.57037	0.030518	0.002594	0.024414	-0.060883	0.14511	0.000305	0.034943	0.11185	0.072784	-0.032501	0.034332	-0.047607	-0.006561	-0.004578	0.10407	0.19287	-0.00412	0.007782
18.83	0.006409	-0.09079	0.062561	0.011597	0.010223	-0.007172	0.060425	-0.019531	-0.018005	0.16144	0.018921	0.010376	-0.13626	-0.35019	0.079193	-0.003052	0.045776	-0.12573	0.08194	-0.094299	0.074005	0.080872	0.076141	-0.069427	0.032349	-0.055084	-0.12207	0.007935	-0.05661	0.26321	0.002136	-0.000763
